<svg width="140" height="136" viewBox="0 0 140 136" fill="none" xmlns="http://www.w3.org/2000/svg">
<rect x="5.36621" y="5.43604" width="129.208" height="124.824" rx="45" transform="rotate(0.0526094 5.36621 5.43604)" fill="#F2D323"/>
<rect x="14.9463" y="15.4165" width="109.779" height="106.053" rx="30" transform="rotate(0.0526094 14.9463 15.4165)" fill="#FEFEED"/>
<rect width="6.0042" height="86.9212" rx="3.0021" transform="matrix(0.999415 -0.03421 0.0161474 0.99987 47.2178 26.0459)" fill="#F2D323"/>
<rect width="6.0042" height="86.629" rx="3.0021" transform="matrix(0.999415 -0.03421 0.0161474 0.99987 86.9053 25.9858)" fill="#F2D323"/>
<rect x="115.05" y="51.4624" width="6" height="89.3611" rx="3" transform="rotate(89.1969 115.05 51.4624)" fill="#F2D323"/>
<rect x="114.478" y="82.8743" width="6" height="89.8024" rx="3" transform="rotate(89.7013 114.478 82.8743)" fill="#F2D323"/>
<rect x="78.8555" y="45.884" width="3.69472" height="19.1351" rx="1.84736" transform="rotate(133.114 78.8555 45.884)" fill="#DD4242"/>
<rect x="65.6729" y="49.0591" width="3.69472" height="19.1267" rx="1.84736" transform="rotate(-138.513 65.6729 49.0591)" fill="#DD4242"/>
<rect x="43.6016" y="46.2444" width="3.3969" height="17.5926" rx="1.69845" transform="rotate(132.198 43.6016 46.2444)" fill="#DD4242"/>
<rect x="31.5303" y="49.3569" width="3.3969" height="17.585" rx="1.69845" transform="rotate(-139.43 31.5303 49.3569)" fill="#DD4242"/>
<ellipse cx="71.1974" cy="70.3876" rx="6.56436" ry="8.5" transform="rotate(2.46606 71.1974 70.3876)" fill="#454E9E"/>
<ellipse cx="71.2885" cy="70.3914" rx="2.83333" ry="4.40741" transform="rotate(2.46606 71.2885 70.3914)" fill="#FEFEED"/>
<ellipse cx="104.96" cy="99.8678" rx="6.56436" ry="8.5" transform="rotate(2.46606 104.96 99.8678)" fill="#454E9E"/>
<ellipse cx="105.051" cy="99.8717" rx="2.83333" ry="4.40741" transform="rotate(2.46606 105.051 99.8717)" fill="#FEFEED"/>
</svg>
